<?xml version="1.0" encoding="UTF-8" standalone="no"?>
<svg
   xmlns:osb="http://www.openswatchbook.org/uri/2009/osb"
   xmlns:dc="http://purl.org/dc/elements/1.1/"
   xmlns:cc="http://creativecommons.org/ns#"
   xmlns:rdf="http://www.w3.org/1999/02/22-rdf-syntax-ns#"
   xmlns:svg="http://www.w3.org/2000/svg"
   xmlns="http://www.w3.org/2000/svg"
   xmlns:xlink="http://www.w3.org/1999/xlink"
   xmlns:sodipodi="http://sodipodi.sourceforge.net/DTD/sodipodi-0.dtd"
   xmlns:inkscape="http://www.inkscape.org/namespaces/inkscape"
   id="svg46"
   xml:space="preserve"
   enable-background="new 0 0 86 86"
   viewBox="0 0 86 86"
   height="86px"
   width="86px"
   y="0px"
   x="0px"
   version="1.1"
   sodipodi:docname="harbour-parkingtimer.svg"
   inkscape:version="0.92.3 (2405546, 2018-03-11)"><sodipodi:namedview
   pagecolor="#ffffff"
   bordercolor="#666666"
   borderopacity="1"
   objecttolerance="10"
   gridtolerance="10"
   guidetolerance="10"
   inkscape:pageopacity="0"
   inkscape:pageshadow="2"
   inkscape:window-width="1920"
   inkscape:window-height="1055"
   id="namedview39"
   showgrid="false"
   inkscape:zoom="7.7617302"
   inkscape:cx="53.839879"
   inkscape:cy="41.824105"
   inkscape:window-x="0"
   inkscape:window-y="0"
   inkscape:window-maximized="1"
   inkscape:current-layer="svg46" /><metadata
   id="metadata52"><rdf:RDF><cc:Work
       rdf:about=""><dc:format>image/svg+xml</dc:format><dc:type
         rdf:resource="http://purl.org/dc/dcmitype/StillImage" /><dc:title /></cc:Work></rdf:RDF></metadata><defs
   id="defs50"><linearGradient
   osb:paint="solid"
   id="linearGradient2630"><stop
     id="stop2628"
     offset="0"
     style="stop-color:#f9f8d9;stop-opacity:1;" /></linearGradient><linearGradient
   osb:paint="solid"
   id="linearGradient2464"><stop
     id="stop2462"
     offset="0"
     style="stop-color:#008080;stop-opacity:1;" /></linearGradient><linearGradient
   osb:paint="solid"
   id="linearGradient2456"><stop
     id="stop2454"
     offset="0"
     style="stop-color:#000000;stop-opacity:1;" /></linearGradient><linearGradient
   osb:paint="solid"
   id="linearGradient2390"><stop
     id="stop2388"
     offset="0"
     style="stop-color:#7b7b7d;stop-opacity:1;" /></linearGradient><linearGradient
   osb:paint="solid"
   id="linearGradient2352"><stop
     id="stop2350"
     offset="0"
     style="stop-color:#7c7d7b;stop-opacity:1;" /></linearGradient>
	
		<radialGradient
   spreadMethod="pad"
   fr="0"
   fy="43.2243"
   fx="43.227402"
   id="SVGID_1_"
   cx="43.227402"
   cy="43.2243"
   r="42.7486"
   gradientTransform="matrix(0.9977,0,0,0.9977,-0.1277,-0.1249)"
   gradientUnits="userSpaceOnUse">
		<stop
   offset="0"
   style="stop-color:#154889;stop-opacity:1"
   id="stop3" />
		<stop
   offset="1"
   style="stop-color:#206fd2;stop-opacity:1"
   id="stop5" />
	</radialGradient>
	
	
	
	<linearGradient
   spreadMethod="repeat"
   xlink:href="#SVGID_2_-9"
   gradientTransform="matrix(1.1224982,0,0,0.6868379,-10.88335,16.444782)"
   id="SVGID_2_"
   gradientUnits="userSpaceOnUse"
   x1="10"
   y1="19"
   x2="86"
   y2="19">
		<stop
   offset="0"
   style="stop-color:#FF4747"
   id="stop16" />
		<stop
   offset="1"
   style="stop-color:#ff9d73;stop-opacity:1"
   id="stop18" />
	</linearGradient>
	
	
<linearGradient
   gradientTransform="matrix(-9.6443495e-4,-1.1224978,0.68683765,-5.9012164e-4,29.556129,96.878851)"
   id="SVGID_2_-5"
   gradientUnits="userSpaceOnUse"
   x1="10"
   y1="19"
   x2="86"
   y2="19"><stop
     offset="0"
     style="stop-color:#FF4747"
     id="stop16-6" /><stop
     offset="1"
     style="stop-color:#FF9666"
     id="stop18-6" /></linearGradient><linearGradient
   gradientTransform="matrix(1.1224982,0,0,0.38084941,-10.303582,66.830357)"
   id="SVGID_2_-9"
   gradientUnits="userSpaceOnUse"
   x1="10"
   y1="19"
   x2="86"
   y2="19"><stop
     offset="0"
     style="stop-color:#FF4747"
     id="stop16-9" /><stop
     offset="1"
     style="stop-color:#FF9666"
     id="stop18-2" /></linearGradient><linearGradient
   spreadMethod="pad"
   gradientUnits="userSpaceOnUse"
   y2="1"
   x2="42.75"
   y1="81"
   x1="42.5"
   id="linearGradient939"
   xlink:href="#SVGID_1_" /><linearGradient
   spreadMethod="repeat"
   xlink:href="#SVGID_2_-9"
   gradientTransform="matrix(1.1224982,0,0,0.6868379,-11.88335,46.444782)"
   id="SVGID_2_-1"
   gradientUnits="userSpaceOnUse"
   x1="10"
   y1="19"
   x2="86"
   y2="19"><stop
     offset="0"
     style="stop-color:#FF4747"
     id="stop16-96" /><stop
     offset="1"
     style="stop-color:#ff9d73;stop-opacity:1"
     id="stop18-21" /></linearGradient><clipPath
   id="clipPath4770"
   clipPathUnits="userSpaceOnUse"><g
     id="use4772"><path
       d="m 31.36816,80.668805 c -0.84245,0 -1.52515,-0.682705 -1.52515,-1.525248 V 59.316612 c 0,-0.842445 0.6827,-1.525248 1.52515,-1.525248 H 51.1952 c 0.84245,0 1.52515,0.682803 1.52515,1.525248 v 19.826945 c 0,0.842543 -0.6827,1.525248 -1.52515,1.525248 z m 0,-0.571722 H 51.1952 c 0.52641,0 0.95303,-0.427022 0.95303,-0.953526 V 59.316612 c 0,-0.526405 -0.42662,-0.953034 -0.95303,-0.953034 H 31.36816 c -0.52641,0 -0.95304,0.426924 -0.95304,0.953034 v 19.826945 c 0,0.526504 0.42663,0.953526 0.95304,0.953526 z M 35.753,77.237489 V 61.223172 h 6.2913 c 2.68482,0 4.86131,2.176398 4.86131,4.86131 0,2.684814 -2.17649,4.86131 -4.86131,4.86131 h -3.8607 v 6.291304 H 35.753 Z m 2.4306,-8.579176 h 3.71826 c 1.42115,0 2.57383,-1.151898 2.57383,-2.573438 0,-1.421146 -1.15268,-2.573929 -2.57383,-2.573929 H 38.1836 V 68.65792 M 41.28207,34.298966 36.30172,15.71072 h 9.96149 L 41.28286,34.298966 M 32.52015,34.809192 21.56955,44 c 4.88972,5.828205 12.10486,9.195822 19.71291,9.195822 C 48.89003,53.195822 56.11028,49.82791 61,44 L 50.04399,34.809192 c -2.17384,2.590444 -5.38093,4.086103 -8.76153,4.086103 -3.38147,0 -6.58856,-1.496052 -8.76152,-4.086103 z"
       style="fill:#ffffff;fill-opacity:1;fill-rule:nonzero;stroke:none;stroke-width:0.09830162"
       id="path848"
       inkscape:connector-curvature="0" /></g></clipPath></defs>
<g
   display="none"
   id="Layer_2">
</g>
<path
   d="M 1.772,0.35 C 0.987,0.35 0.35,0.987 0.35,1.772 v 82.457 c 0,0.785 0.636,1.422 1.422,1.422 H 43 c 23.556,0 42.65,-19.096 42.65,-42.65 V 1.771 c 0,-0.785 -0.696,-1.422 -1.481,-1.422 H 1.772 Z"
   id="path8"
   style="fill:url(#linearGradient939);fill-opacity:1;stroke:none;stroke-opacity:1;stroke-width:0.7;stroke-miterlimit:4;stroke-dasharray:none" />






<path
   d="m 30,79.379048 c -0.949799,0 -1.719491,-0.769698 -1.719491,-1.719601 V 55.306075 c 0,-0.949793 0.769692,-1.719601 1.719491,-1.719601 h 22.353478 c 0.949799,0 1.719491,0.769808 1.719491,1.719601 v 22.353372 c 0,0.949903 -0.769692,1.719601 -1.719491,1.719601 z m 0,-0.644573 h 22.353478 c 0.593488,0 1.074469,-0.481435 1.074469,-1.075028 V 55.306075 c 0,-0.593482 -0.480981,-1.074473 -1.074469,-1.074473 H 30 c -0.593488,0 -1.07448,0.481324 -1.07448,1.074473 v 22.353372 c 0,0.593593 0.480992,1.075028 1.07448,1.075028 z M 34.943573,75.5105 V 57.455576 h 7.092962 c 3.02693,0 5.480757,2.453723 5.480757,5.480757 0,3.026924 -2.453827,5.480758 -5.480757,5.480758 H 37.68389 v 7.092966 h -2.740317 z m 2.740317,-9.672368 h 4.192055 c 1.602238,0 2.901797,-1.298677 2.901797,-2.901355 0,-1.602234 -1.299559,-2.90191 -2.901797,-2.90191 H 37.68389 v 5.802822 M 41.177179,27.100583 35.562213,6.1437502 H 46.793035 L 41.178069,27.100583 m -9.879288,0.575241 -12.345969,10.361937 c 5.512788,6.570857 13.647309,10.367589 22.224806,10.367589 8.576957,0 16.717239,-3.797064 22.230026,-10.367589 L 51.055577,27.675824 c -2.450839,2.920528 -6.066589,4.60677 -9.877959,4.60677 -3.81235,0 -7.4281,-1.686685 -9.877947,-4.60677 z"
   style="fill:#ffffff;fill-opacity:1;fill-rule:nonzero;stroke:none;stroke-width:0.11082759"
   id="path3454"
   inkscape:connector-curvature="0" /><path
   id="path3456"
   style="fill:#231f20;fill-opacity:1;fill-rule:evenodd;stroke:none;stroke-width:0.11082761"
   d="m 34.127107,30.953885 0.558018,0.322176 -0.967195,1.674938 -0.558017,-0.322065 z m -5.346989,6.592137 0.957103,0.552364 -0.172664,0.299124 c -0.04859,0.08401 -0.07362,0.179318 -0.07362,0.276736 0,0.30511 0.247143,0.552365 0.552359,0.552365 0.197389,0 0.379693,-0.105614 0.478332,-0.276181 l 0.932955,-1.615646 c 0.04814,-0.08357 0.07407,-0.17932 0.07407,-0.276293 0,-0.305553 -0.247581,-0.552809 -0.55281,-0.552809 -0.149833,0 -0.29314,0.06107 -0.396976,0.168459 l -0.850269,-0.495289 2.072802,-3.589817 2.752076,1.588824 -0.518231,0.897926 -1.914772,-1.105728 -1.041109,1.803609 c 0.09775,-0.02294 0.198269,-0.03469 0.299116,-0.03469 0.724709,0 1.31265,0.58794 1.31265,1.312641 0,0.230743 -0.06065,0.456721 -0.176217,0.656322 l -1.036023,1.794853 c -0.29613,0.513021 -0.84373,0.829102 -1.43599,0.829102 -0.915659,0 -1.65809,-0.742546 -1.65809,-1.658093 0,-0.290922 0.07666,-0.577079 0.222102,-0.8291 L 28.77969,37.54602 Z m -1.708736,3.507028 0.195609,-0.33891 0.457158,-0.05542 0.319524,0.184861 -1.289705,2.233399 -0.319072,-0.184418 1.093984,-1.894486 -0.457171,0.05496 z m 0.320731,2.392768 1.863789,-1.477553 -0.598357,-0.345008 -0.184414,0.319073 -0.319083,-0.184417 0.368397,-0.638145 1.276729,0.736782 -0.173218,0.299234 -1.874094,1.496948 -0.35886,-0.207358 z M 40.85467,32.929387 h 0.644583 v 1.934275 H 40.85467 Z m 0.323401,2.57929 h 1.243708 l -1.274959,3.26077 c 0.142078,-0.05453 0.293581,-0.08312 0.445963,-0.08312 0.68658,0 1.24382,0.55713 1.24382,1.244261 v 1.726916 c 0,0.915989 -0.742544,1.658424 -1.658092,1.658424 -0.916099,0 -1.65809,-0.742435 -1.65809,-1.658424 V 40.20677 c 0,-0.200043 0.03585,-0.397872 0.106542,-0.584947 l 1.551584,-4.113146 z m -0.552922,6.148827 c 0,0.305109 0.247706,0.552808 0.552922,0.552808 0.305217,0 0.55281,-0.247699 0.55281,-0.552808 v -1.451178 c 0,-0.305218 -0.247593,-0.552475 -0.55281,-0.552475 -0.305216,0 -0.552922,0.247257 -0.552922,0.552475 z m -0.876639,3.546483 v -0.391443 l 0.368499,-0.276626 h 0.368384 v 2.578959 h -0.368384 v -2.187626 z m 1.589702,0.569654 C 41.178071,45.646853 41.08409,45.454124 41.08409,45.24987 c 0,-0.406959 0.330381,-0.737338 0.737222,-0.737338 0.406955,0 0.736897,0.330379 0.736897,0.737338 0,0.204254 -0.09357,0.396983 -0.253682,0.523771 0.187851,0.133768 0.299556,0.350659 0.299556,0.581402 0,0.432116 -0.350212,0.783218 -0.782771,0.783218 -0.432446,0 -0.782668,-0.351102 -0.782668,-0.783218 0,-0.230743 0.111728,-0.448077 0.299568,-0.581402 z m 0.06889,0.581402 c 0,-0.228971 0.185745,-0.414717 0.414273,-0.414717 0.229521,0 0.414825,0.185746 0.414825,0.414717 0,0.22908 -0.185304,0.414716 -0.414825,0.414716 -0.228528,0 -0.414273,-0.185636 -0.414273,-0.414716 z m 0.04589,-1.105173 c 0,-0.20348 0.164909,-0.368946 0.368386,-0.368946 0.203478,0 0.368499,0.165466 0.368499,0.368946 0,0.203035 -0.165021,0.36839 -0.368499,0.36839 -0.203477,0 -0.368386,-0.165355 -0.368386,-0.36839 z m 6.21498,-13.973366 0.55847,-0.322177 0.967183,1.67505 -0.558457,0.322508 z m 1.100965,4.576404 -0.967634,-1.675492 2.8721,-1.658092 0.518559,0.897483 1.735118,6.736212 -1.017286,0.587498 -1.675388,-6.771347 -1.077129,0.621743 0.449301,0.777901 -0.837641,0.483651 z m 4.117465,6.584267 -0.195609,-0.339022 0.180874,-0.423804 0.319075,-0.183974 1.289255,2.233399 -0.319073,0.183973 -1.093973,-1.894488 -0.180545,0.423474 z m 2.670731,0.664967 -0.35931,0.207357 -0.07531,-1.231626 c -0.113374,0.146736 -0.288373,0.233291 -0.474455,0.233291 -0.213894,0 -0.411724,-0.11382 -0.51867,-0.299566 L 54.025999,41.83239 c -0.0646,-0.112157 -0.09876,-0.239388 -0.09876,-0.368503 0,-0.407291 0.329829,-0.737225 0.737235,-0.737225 0.262769,0 0.506144,0.140751 0.638143,0.368391 l 0.05715,0.09963 c 0.05705,0.09864 0.09043,0.208687 0.09741,0.322507 z m -1.21224,-1.45417 0.05761,0.09953 c 0.06584,0.114263 0.187412,0.184417 0.319513,0.184417 0.203037,0 0.368397,-0.165355 0.368397,-0.368392 0,-0.06494 -0.01726,-0.128559 -0.04926,-0.184416 l -0.05807,-0.09963 c -0.06584,-0.114263 -0.186959,-0.184418 -0.31862,-0.184418 -0.203929,0 -0.368838,0.165024 -0.368838,0.368836 0,0.0645 0.01726,0.128227 0.04926,0.184084 z m -9.819434,-9.138511 0.311204,-0.08312 0.500949,1.867999 -0.311316,0.08357 -0.500837,-1.868886 z m 6.111923,-3.432219 0.228192,-0.228194 1.36761,1.368055 -0.227751,0.227751 z m -19.150227,-0.228194 0.22819,0.228194 -1.368051,1.367612 -0.227751,-0.227751 z m 6.028911,3.576849 0.311202,0.08312 -0.500384,1.86933 -0.311767,-0.08357 0.500949,-1.868109" /></svg>